<?xml version="1.0" encoding="UTF-8"?>
<svg xmlns="http://www.w3.org/2000/svg" width="24" height="24" viewBox="0 0 24 24" fill="none" stroke="currentColor" stroke-width="2" stroke-linecap="round" stroke-linejoin="round">
  <path d="M17.94 17.94A10.94 10.94 0 0 1 12 20c-7 0-11-8-11-8a21.42 21.42 0 0 1 5.17-6.26"/>
  <path d="M1 1l22 22"/>
  <path d="M9.88 9.88a3 3 0 1 0 4.24 4.24"/>
  <path d="M12 4a10.94 10.94 0 0 1 7.17 2.74 21.42 21.42 0 0 1 4.83 6.26s-4 8-11 8a10.94 10.94 0 0 1-5.17-1.26"/>
</svg>
